<?xml version="1.0" encoding="UTF-8"?>
<svg xmlns="http://www.w3.org/2000/svg" viewBox="0 0 128 128" role="img" aria-labelledby="title">
  <title id="title">Monora screen recorder</title>
  <defs>
    <linearGradient id="monora-bg" x1="16" y1="8" x2="112" y2="120" gradientUnits="userSpaceOnUse">
      <stop offset="0" stop-color="#4aa3ff"/>
      <stop offset="0.45" stop-color="#245edc"/>
      <stop offset="1" stop-color="#163d8f"/>
    </linearGradient>
    <linearGradient id="monora-screen" x1="28" y1="32" x2="100" y2="78" gradientUnits="userSpaceOnUse">
      <stop offset="0" stop-color="#1a3d66"/>
      <stop offset="1" stop-color="#0c1929"/>
    </linearGradient>
    <linearGradient id="monora-bezel" x1="22" y1="26" x2="106" y2="84" gradientUnits="userSpaceOnUse">
      <stop offset="0" stop-color="#f8f8f8"/>
      <stop offset="1" stop-color="#c8c8c8"/>
    </linearGradient>
    <filter id="monora-shadow" x="-20%" y="-20%" width="140%" height="140%">
      <feDropShadow dx="0" dy="2" stdDeviation="2" flood-color="#000" flood-opacity="0.35"/>
    </filter>
  </defs>
  <rect width="128" height="128" rx="26" fill="url(#monora-bg)"/>
  <g filter="url(#monora-shadow)">
    <rect x="20" y="24" width="88" height="62" rx="8" fill="url(#monora-bezel)"/>
    <rect x="27" y="31" width="74" height="48" rx="4" fill="url(#monora-screen)"/>
    <rect x="32" y="36" width="30" height="20" rx="2" fill="#3d7ab8" opacity="0.75"/>
    <rect x="66" y="36" width="30" height="36" rx="2" fill="#2d5f94" opacity="0.55"/>
    <path d="M52 86h24v6H58v4h12v4H52z" fill="#b8b8b8"/>
    <rect x="44" y="94" width="40" height="5" rx="2" fill="#a0a0a0"/>
  </g>
  <g>
    <circle cx="98" cy="34" r="16" fill="#b71c1c"/>
    <circle cx="98" cy="34" r="12" fill="#e53935"/>
    <circle cx="98" cy="34" r="5" fill="#ffcdd2" opacity="0.9"/>
  </g>
  <path
    d="M46 52 L46 64 L58 58 Z"
    fill="#7dd3fc"
    opacity="0.9"
  />
</svg>
